<svg width="12" height="14" viewBox="0 0 12 14" fill="none" xmlns="http://www.w3.org/2000/svg">
<path d="M2.46879 13.2138L2.46877 13.2138L2.46305 13.2178C1.77673 13.6994 0.829181 13.2635 0.763471 12.4162C0.686232 11.4203 0.583337 9.59552 0.583354 6.94197V6.89409V6.89408C0.583335 5.84069 0.583907 4.92294 0.659057 4.15713C0.735247 3.38073 0.893391 2.68549 1.26058 2.11919C2.02843 0.934977 3.50741 0.593122 5.83112 0.583554C8.15753 0.573974 9.63861 0.914206 10.4072 2.10593C10.7739 2.67442 10.9319 3.37289 11.008 4.15192C11.0832 4.92067 11.0837 5.84081 11.0837 6.89457V6.94197C11.0837 9.59553 10.9808 11.4203 10.9036 12.4163C10.8379 13.2635 9.89033 13.6994 9.20401 13.2178L9.20404 13.2178L9.19828 13.2138C8.59623 12.802 8.03908 12.3587 7.60492 12.0131L7.59711 12.0068C7.39981 11.8498 7.22076 11.7072 7.0803 11.6031C6.81675 11.4077 6.59668 11.2743 6.39277 11.1922C6.17085 11.1029 5.99162 11.0837 5.83353 11.0837C5.67544 11.0837 5.49622 11.1029 5.27429 11.1922C5.07038 11.2743 4.85032 11.4077 4.58676 11.6031C4.44628 11.7072 4.26713 11.8499 4.0698 12.007L4.06214 12.0131C3.62799 12.3587 3.07084 12.802 2.46879 13.2138Z" stroke="#0C0B2F" stroke-width="1.16671" stroke-linecap="round" stroke-linejoin="round"/>
<path d="M7.00023 2.91904C7.58358 2.91904 7.87526 2.91682 8.31277 3.3532C8.75029 3.78959 8.75029 5.25018 8.75029 5.83353" stroke="#0C0B2F" stroke-width="1.16671" stroke-linecap="round" stroke-linejoin="round"/>
</svg>
