<svg width="20" height="20" viewBox="0 0 20 20" fill="none" xmlns="http://www.w3.org/2000/svg">
<path fill-rule="evenodd" clip-rule="evenodd" d="M8.40008 15.494H3.14925C2.80425 15.494 2.52425 15.214 2.52425 14.869C2.52425 14.524 2.80425 14.244 3.14925 14.244H8.40008C8.74508 14.244 9.02508 14.524 9.02508 14.869C9.02508 15.214 8.74508 15.494 8.40008 15.494" fill="#ECEBF6" fill-opacity="0.62"/>
<path fill-rule="evenodd" clip-rule="evenodd" d="M15.9924 7.41699H10.7424C10.3974 7.41699 10.1174 7.13699 10.1174 6.79199C10.1174 6.44699 10.3974 6.16699 10.7424 6.16699H15.9924C16.3374 6.16699 16.6174 6.44699 16.6174 6.79199C16.6174 7.13699 16.3374 7.41699 15.9924 7.41699" fill="#ECEBF6" fill-opacity="0.62"/>
<mask id="mask0_102_847" style="mask-type:luminance" maskUnits="userSpaceOnUse" x="2" y="4" width="6" height="6">
<path fill-rule="evenodd" clip-rule="evenodd" d="M2.5 4.16699H7.68817V9.32666H2.5V4.16699Z" fill="white"/>
</mask>
<g mask="url(#mask0_102_847)">
<path fill-rule="evenodd" clip-rule="evenodd" d="M5.094 5.41667C4.35317 5.41667 3.74983 6.01333 3.74983 6.7475C3.74983 7.48083 4.35317 8.07667 5.094 8.07667C5.83567 8.07667 6.43817 7.48083 6.43817 6.7475C6.43817 6.01333 5.83567 5.41667 5.094 5.41667M5.09397 9.3266C3.66397 9.3266 2.4998 8.16993 2.4998 6.74743C2.4998 5.32493 3.66397 4.1666 5.09397 4.1666C6.5248 4.1666 7.68813 5.32493 7.68813 6.74743C7.68813 8.16993 6.5248 9.3266 5.09397 9.3266" fill="#ECEBF6" fill-opacity="0.62"/>
</g>
<path fill-rule="evenodd" clip-rule="evenodd" d="M14.4897 13.5067C13.7481 13.5067 13.1447 14.1033 13.1447 14.8367C13.1447 15.5708 13.7481 16.1667 14.4897 16.1667C15.2306 16.1667 15.8331 15.5708 15.8331 14.8367C15.8331 14.1033 15.2306 13.5067 14.4897 13.5067M14.4897 17.4167C13.0589 17.4167 11.8947 16.2592 11.8947 14.8367C11.8947 13.4142 13.0589 12.2567 14.4897 12.2567C15.9197 12.2567 17.0831 13.4142 17.0831 14.8367C17.0831 16.2592 15.9197 17.4167 14.4897 17.4167" fill="#ECEBF6" fill-opacity="0.62"/>
</svg>
