<svg width="17" height="19" viewBox="0 0 17 19" fill="none" xmlns="http://www.w3.org/2000/svg">
<path d="M6.0528 16.8947C7.23701 17.9473 9.60543 17.9473 10.7896 16.8947" stroke="#ECEBF6" stroke-width="1.57895" stroke-linecap="round" stroke-linejoin="round"/>
<path fill-rule="evenodd" clip-rule="evenodd" d="M9.20959 1.14634C9.21029 1.13273 9.21064 1.11904 9.21064 1.10527C9.21064 0.669255 8.85718 0.315796 8.42117 0.315796C7.98515 0.315796 7.63169 0.669255 7.63169 1.10527C7.63169 1.11905 7.63205 1.13275 7.63275 1.14636C4.98986 1.52729 2.50302 4.49954 2.89489 7.81574C3.09785 8.83052 2.45881 9.36815 1.79367 9.92774C1.16515 10.4565 0.513337 11.0049 0.526628 11.994C0.526628 13.3803 1.31591 14.1315 2.47509 14.5041C2.47509 14.5041 4.59805 15.3157 8.42126 15.3157C12.2445 15.3157 14.3674 14.5041 14.3674 14.5041C15.5266 14.1315 16.3161 13.3421 16.3159 11.994C16.3158 10.9964 15.6644 10.4478 15.0393 9.92144C14.3771 9.36379 13.7446 8.83109 13.9476 7.81574C14.0181 7.21954 13.9955 6.63446 13.8957 6.07355C13.4865 6.4191 12.9585 6.62842 12.3817 6.63158C12.4168 6.94267 12.4193 7.26054 12.3852 7.58104C12.2286 8.45585 12.4162 9.21935 12.8144 9.85266C13.1599 10.4022 13.6455 10.8116 13.9431 11.0624L13.9656 11.0814C14.7132 11.7121 14.7369 11.8102 14.737 11.9942C14.737 12.3385 14.6449 12.5059 14.5613 12.6066C14.4607 12.7278 14.2622 12.8794 13.8843 13.0009L13.8436 13.014L13.8095 13.027L13.807 13.0279C13.8 13.0304 13.7851 13.0357 13.7622 13.0435C13.7164 13.059 13.6389 13.0842 13.5306 13.1161C13.3138 13.1798 12.9737 13.27 12.5167 13.362C11.6028 13.5458 10.2207 13.7368 8.42126 13.7368C6.62184 13.7368 5.23974 13.5458 4.32587 13.362C3.86881 13.27 3.52869 13.1798 3.31198 13.1161C3.20362 13.0842 3.12614 13.059 3.08035 13.0435C3.05746 13.0357 3.04249 13.0304 3.03556 13.0279L3.03302 13.027L2.99897 13.014L2.95823 13.0009C2.56247 12.8737 2.36892 12.7253 2.2755 12.614C2.20243 12.527 2.10558 12.366 2.10558 11.994V11.9834L2.10543 11.9728C2.10332 11.8156 2.10725 11.7283 2.86598 11.089L2.88877 11.0698C3.18781 10.818 3.6748 10.4079 4.02199 9.85893C4.42195 9.22652 4.61466 8.46076 4.45738 7.5811C4.32132 6.30359 4.76693 5.06782 5.53971 4.13651C6.33876 3.17354 7.35561 2.68416 8.19942 2.68416H8.64311C9.14529 2.68416 9.70876 2.85749 10.2511 3.20083C10.4992 2.70743 10.9146 2.31267 11.4229 2.09108C10.7441 1.59157 9.98352 1.25785 9.20959 1.14634Z" fill="#ECEBF6"/>
<circle cx="12.3685" cy="4.26318" r="1.57895" fill="#9E90EE"/>
</svg>
